<svg xmlns="http://www.w3.org/2000/svg" width="40" height="40" viewBox="0 0 40 40"><g><g><path fill="#fff" d="M18.46 12.051c-.181.217-.437.337-.71.394L15.307 10h1.608l5.877-7.054c.238-.284.59-.449.96-.449h5.001c.692 0 1.25.56 1.25 1.25v20.95l-2.5-2.501V4.998h-3.164zm19.778 27.955l-8.236-8.236v4.488a1.25 1.25 0 0 1-1.25 1.25h-5c-.372 0-.723-.164-.961-.45l-5.876-7.052h-5.669a1.25 1.25 0 0 1-1.25-1.248l.001-16.993L-.006 1.76 1.762-.007l38.244 38.245zm-10.736-4.998V29.27L12.497 14.265v13.243l5.003-.002c.371 0 .723.164.96.449l5.878 7.053z"/></g></g></svg>