<svg xmlns="http://www.w3.org/2000/svg" width="64" height="64" viewBox="0 0 64 64"><g><g><path fill="#fff" d="M64 11.75v47.5c0 2.618-2.131 4.75-4.75 4.75H4.75C2.13 64 0 61.87 0 59.25v-3.235c0-.69.56-1.25 1.25-1.25H4.63a10.227 10.227 0 0 1-3.571-7.766c0-5.652 4.598-10.25 10.25-10.25S21.56 41.347 21.56 47c0 3.103-1.387 5.885-3.571 7.766h12.49a1.25 1.25 0 0 1 0 2.5H2.5v1.984c0 1.24 1.01 2.25 2.25 2.25h50.317a4.724 4.724 0 0 1-.569-2.25v-1.984h-13.29a1.25 1.25 0 1 1 0-2.5h14.54c.69 0 1.25.56 1.25 1.25v3.234c0 1.24 1.01 2.25 2.251 2.25 1.241 0 2.251-1.01 2.251-2.25v-47.5A3.754 3.754 0 0 0 57.75 8h-5.958v1.563a3.754 3.754 0 0 1-3.75 3.75 3.754 3.754 0 0 1-3.75-3.75V8h-21v1.563a3.754 3.754 0 0 1-3.75 3.75 3.754 3.754 0 0 1-3.75-3.75V7.953c-.107.03-.218.046-.334.046h-4.98a3.754 3.754 0 0 0-3.75 3.75v4.125h45.064a1.25 1.25 0 0 1 0 2.5H6.728v14.667a1.25 1.25 0 1 1-2.5 0V11.75a6.257 6.257 0 0 1 6.25-6.25h4.98c.116 0 .227.016.334.046V3.75A3.754 3.754 0 0 1 19.542 0a3.754 3.754 0 0 1 3.75 3.75V5.5h21V3.75A3.754 3.754 0 0 1 48.042 0a3.754 3.754 0 0 1 3.75 3.75V5.5h5.958A6.257 6.257 0 0 1 64 11.75zm-43.208-8c0-.69-.561-1.25-1.25-1.25-.69 0-1.25.56-1.25 1.25v5.812c0 .69.56 1.25 1.25 1.25.689 0 1.25-.56 1.25-1.25zm28.5 0c0-.69-.561-1.25-1.25-1.25-.69 0-1.25.56-1.25 1.25v5.812a1.251 1.251 0 0 0 2.5 0zm-37.982 51c4.273 0 7.75-3.477 7.75-7.75 0-4.274-3.477-7.75-7.75-7.75-4.274 0-7.75 3.476-7.75 7.75 0 4.273 3.476 7.75 7.75 7.75zM56.77 18.007a1.259 1.259 0 0 1-.366-.884c0-.328.134-.65.366-.883a1.26 1.26 0 0 1 .884-.367c.329 0 .651.134.884.367.232.232.366.555.366.883 0 .33-.134.652-.366.884a1.26 1.26 0 0 1-.884.367 1.26 1.26 0 0 1-.884-.367zM36.447 54.766c.33 0 .652.132.884.365.233.234.366.555.366.883 0 .33-.133.652-.366.886a1.258 1.258 0 0 1-.884.365c-.328 0-.65-.133-.883-.365a1.264 1.264 0 0 1-.367-.886c0-.328.134-.65.367-.883.232-.233.555-.365.883-.365zM23.531 42.749c0-2.619 2.13-4.75 4.75-4.75 2.619 0 4.75 2.131 4.75 4.75 0 2.62-2.131 4.75-4.75 4.75a4.756 4.756 0 0 1-4.75-4.75zm2.5 0c0 1.241 1.009 2.25 2.25 2.25 1.24 0 2.25-1.009 2.25-2.25 0-1.24-1.01-2.25-2.25-2.25-1.241 0-2.25 1.01-2.25 2.25zm9.166 0c0-2.619 2.131-4.75 4.75-4.75 2.62 0 4.75 2.131 4.75 4.75 0 2.62-2.13 4.75-4.75 4.75a4.756 4.756 0 0 1-4.75-4.75zm2.5 0c0 1.241 1.01 2.25 2.25 2.25s2.25-1.009 2.25-2.25c0-1.24-1.01-2.25-2.25-2.25s-2.25 1.01-2.25 2.25zm9.167 0c0-2.619 2.13-4.75 4.75-4.75s4.75 2.131 4.75 4.75c0 2.62-2.13 4.75-4.75 4.75a4.756 4.756 0 0 1-4.75-4.75zm2.5 0c0 1.241 1.01 2.25 2.25 2.25s2.25-1.009 2.25-2.25c0-1.24-1.01-2.25-2.25-2.25s-2.25 1.01-2.25 2.25zm-32.75-8.25c-2.62 0-4.75-2.13-4.75-4.75 0-2.618 2.13-4.749 4.75-4.749 2.619 0 4.75 2.13 4.75 4.75 0 2.619-2.131 4.75-4.75 4.75zm0-2.5c1.24 0 2.25-1.009 2.25-2.25 0-1.24-1.01-2.25-2.25-2.25s-2.25 1.01-2.25 2.25c0 1.241 1.01 2.25 2.25 2.25zm18.583-2.25c0-2.618 2.131-4.749 4.75-4.749 2.62 0 4.75 2.13 4.75 4.75 0 2.619-2.13 4.75-4.75 4.75-2.619 0-4.75-2.131-4.75-4.75zm2.5 0c0 1.241 1.01 2.25 2.25 2.25s2.25-1.009 2.25-2.25c0-1.24-1.01-2.25-2.25-2.25s-2.25 1.01-2.25 2.25zm9.167 0c0-2.618 2.13-4.749 4.75-4.749s4.75 2.13 4.75 4.75c0 2.619-2.13 4.75-4.75 4.75s-4.75-2.131-4.75-4.75zm2.5 0c0 1.241 1.01 2.25 2.25 2.25s2.25-1.009 2.25-2.25c0-1.24-1.01-2.25-2.25-2.25s-2.25 1.01-2.25 2.25zm-25.833 0c0-2.618 2.13-4.749 4.75-4.749 2.619 0 4.75 2.13 4.75 4.75 0 2.619-2.131 4.75-4.75 4.75-2.62 0-4.75-2.131-4.75-4.75zm2.5 0c0 1.241 1.009 2.25 2.25 2.25 1.24 0 2.25-1.009 2.25-2.25 0-1.24-1.01-2.25-2.25-2.25-1.241 0-2.25 1.01-2.25 2.25zM6.765 48.402a1.25 1.25 0 0 1 1.768-1.768l1.391 1.391 4.071-4.07a1.25 1.25 0 1 1 1.768 1.767l-4.955 4.954a1.248 1.248 0 0 1-1.768 0z"/></g></g></svg>