<svg xmlns="http://www.w3.org/2000/svg" width="66" height="64" viewBox="0 0 66 64"><g><g><path fill="#fff" d="M41.09 38.744c0 1.328 1.248 2.408 2.783 2.408 2.93 0 5.313 2.216 5.313 4.94 0 2.318-1.727 4.266-4.048 4.796v.547a1.265 1.265 0 0 1-2.53 0v-.547c-2.32-.53-4.048-2.478-4.048-4.796a1.265 1.265 0 1 1 2.53 0c0 1.328 1.248 2.408 2.783 2.408s2.783-1.08 2.783-2.408c0-1.329-1.248-2.41-2.783-2.41-2.93 0-5.313-2.214-5.313-4.938 0-2.318 1.727-4.267 4.048-4.796v-.658a1.265 1.265 0 0 1 2.53 0v.658c2.32.529 4.048 2.478 4.048 4.796a1.265 1.265 0 0 1-2.53 0c0-1.328-1.248-2.408-2.783-2.408s-2.783 1.08-2.783 2.408zM60.324 42.5a16.48 16.48 0 0 1-1.918 7.715 1.265 1.265 0 1 1-2.234-1.189 13.94 13.94 0 0 0 1.622-6.526c0-5.318-3.099-10.243-7.895-12.55a1.265 1.265 0 1 1 1.097-2.279 16.474 16.474 0 0 1 6.732 5.959 16.386 16.386 0 0 1 2.596 8.87zM44.51 27.32c0-.699.567-1.265 1.265-1.265h.086a1.265 1.265 0 0 1-.006 2.53h-.08a1.265 1.265 0 0 1-1.265-1.264zm-6.06 29.417a1.266 1.266 0 0 1-1.689.592 16.488 16.488 0 0 1-6.732-5.958 16.392 16.392 0 0 1-2.596-8.87c0-2.69.664-5.357 1.918-7.716a1.265 1.265 0 0 1 2.234 1.189 13.944 13.944 0 0 0-1.622 6.526c0 5.318 3.099 10.243 7.894 12.549.63.303.895 1.059.592 1.688zm4.796.943c0 .699-.567 1.265-1.265 1.265h-.085a1.265 1.265 0 1 1 .011-2.53h.074c.698 0 1.265.567 1.265 1.265zM65.384 42.5c0 11.858-9.647 21.505-21.505 21.505-6.19 0-11.778-2.63-15.705-6.831H13.266a5.826 5.826 0 0 1-5.82-5.82A5.81 5.81 0 0 1 9.65 46.8a5.81 5.81 0 0 1 0-9.108 5.81 5.81 0 0 1 0-9.108 5.81 5.81 0 0 1-2.203-4.554 5.826 5.826 0 0 1 5.819-5.819h3.299a5.785 5.785 0 0 1-1.022-3.289c0-1.22.378-2.352 1.022-3.29H6.435a5.826 5.826 0 0 1-5.82-5.818 5.826 5.826 0 0 1 5.82-5.819h30.992a5.826 5.826 0 0 1 5.82 5.819c0 1.22-.379 2.353-1.023 3.289h10.13a5.826 5.826 0 0 1 5.82 5.82 5.826 5.826 0 0 1-5.82 5.818h-3.293c.22.32.408.666.562 1.033 9.078 2.52 15.76 10.856 15.76 20.725zM6.434 9.103h30.993a3.292 3.292 0 0 0 3.29-3.289 3.292 3.292 0 0 0-3.29-3.289H6.435a3.292 3.292 0 0 0-3.29 3.289 3.292 3.292 0 0 0 3.29 3.289zm14.928 9.108h30.992a3.293 3.293 0 0 0 3.29-3.289 3.293 3.293 0 0 0-3.29-3.29H21.362a3.293 3.293 0 0 0-3.29 3.29 3.293 3.293 0 0 0 3.29 3.29zm-8.096 9.108H28.66c3.896-3.905 9.28-6.325 15.218-6.325.611 0 1.216.027 1.815.077a3.293 3.293 0 0 0-1.436-.33H13.266a3.292 3.292 0 0 0-3.289 3.289 3.292 3.292 0 0 0 3.289 3.289zm0 9.108h9.982A21.447 21.447 0 0 1 26.5 29.85H13.266a3.293 3.293 0 0 0-3.289 3.289 3.293 3.293 0 0 0 3.289 3.29zm0 9.108h9.323a21.591 21.591 0 0 1 .078-6.578h-9.401a3.292 3.292 0 0 0-3.289 3.289 3.292 3.292 0 0 0 3.289 3.289zm12.875 9.108a21.418 21.418 0 0 1-3.035-6.578h-9.84a3.292 3.292 0 0 0-3.289 3.289 3.293 3.293 0 0 0 3.289 3.29zM62.854 42.5c0-10.463-8.512-18.975-18.975-18.975-10.463 0-18.975 8.512-18.975 18.975 0 10.463 8.512 18.975 18.975 18.975 10.463 0 18.975-8.512 18.975-18.975z"/></g></g></svg>