<svg xmlns="http://www.w3.org/2000/svg" width="36" height="41" viewBox="0 0 36 41"><g><g><path fill="#fff" d="M35.311 23.212c.824 1.098.015 2.627-1.313 2.627-.5.001-.993-.226-1.316-.656l-2.01-2.681h-4.718l-1.732 4.62 1.824 1.823 3.167-1.267a1.644 1.644 0 0 1 1.221 3.051l-1.86.744 1.577 1.576c1.039 1.039.288 2.804-1.162 2.804-.42 0-.841-.16-1.162-.481l-1.576-1.576-.744 1.859a1.643 1.643 0 1 1-3.052-1.22l1.267-3.167-1.824-1.824-1.325.496c.55 5.832-4.054 10.92-9.946 10.92-5.508 0-9.99-4.48-9.99-9.987 0-3.228 1.578-6.258 4.174-8.121V6.674c0-5.15 6.276-7.765 9.929-4.113a5.775 5.775 0 0 1 1.703 4.113v3.555l5.455 2.045 1.824-1.824-1.266-3.167a1.643 1.643 0 0 1 3.05-1.22l.745 1.86 1.576-1.577a1.643 1.643 0 0 1 2.324 2.323l-1.577 1.577 1.86.744a1.642 1.642 0 1 1-1.22 3.05l-3.168-1.266-1.824 1.824 1.732 4.618h4.717l2.011-2.68a1.643 1.643 0 1 1 2.63 1.971l-1.765 2.352zM10.627 37.575a6.71 6.71 0 0 0 6.704-6.702 6.728 6.728 0 0 0-3.354-5.807 1.644 1.644 0 0 1-.82-1.422v-1.142h-.86a1.643 1.643 0 1 1 0-3.286h.86V6.674c0-.676-.263-1.313-.741-1.79-1.59-1.589-4.319-.45-4.319 1.79v16.97c0 .586-.312 1.128-.82 1.422a6.727 6.727 0 0 0-3.353 5.807 6.71 6.71 0 0 0 6.703 6.702zm5.816-14.823a10.033 10.033 0 0 1 3.278 4l1.314-.494 2.026-5.399-2.026-5.4-4.592-1.72v9.013zm-5.816 4.809a3.316 3.316 0 0 1 3.313 3.312 3.316 3.316 0 0 1-3.313 3.311 3.316 3.316 0 0 1-3.312-3.311 3.316 3.316 0 0 1 3.312-3.312zm0 3.338c.035 0 .035-.052 0-.052-.034 0-.034.052 0 .052z"/></g></g></svg>