<svg xmlns="http://www.w3.org/2000/svg" width="42" height="42" viewBox="0 0 42 42"><defs><mask id="nrc3b" width="2" height="2" x="-1" y="-1"><path fill="#fff" d="M6 2h30v30H6z"/><path d="M21 2c8.284 0 15 6.715 15 15 0 8.284-6.716 15-15 15-8.284 0-15-6.716-15-15C6 8.715 12.716 2 21 2z"/></mask><filter id="nrc3a" width="66" height="70" x="-12" y="-16" filterUnits="userSpaceOnUse"><feOffset dy="4" in="SourceGraphic" result="FeOffset1131Out"/><feGaussianBlur in="FeOffset1131Out" result="FeGaussianBlur1132Out" stdDeviation="3.2 3.2"/></filter></defs><g><g><g filter="url(#nrc3a)"><path fill="none" d="M21 2c8.284 0 15 6.715 15 15 0 8.284-6.716 15-15 15-8.284 0-15-6.716-15-15C6 8.715 12.716 2 21 2z" mask="url(&quot;#nrc3b&quot;)"/><path fill-opacity=".15" d="M21 2c8.284 0 15 6.715 15 15 0 8.284-6.716 15-15 15-8.284 0-15-6.716-15-15C6 8.715 12.716 2 21 2z"/></g><path fill="#fff" d="M21 2c8.284 0 15 6.715 15 15 0 8.284-6.716 15-15 15-8.284 0-15-6.716-15-15C6 8.715 12.716 2 21 2z"/></g><g><path fill="#bfb741" d="M21 9a8 8 0 1 1 0 16 8 8 0 0 1 0-16z"/></g></g></svg>