<svg xmlns="http://www.w3.org/2000/svg" width="64" height="64" viewBox="0 0 64 64"><g><g><path fill="#fff" d="M61.863 6.402v51.195H64V64H.001v-6.402h2.136V6.402H0V0h63.998v6.402zM2.137 4.266h59.726v-2.13H2.137zm59.726 55.467H2.137v2.13h59.726zm-2.13-53.331H4.267v51.195h55.468zM30.933 55.469H6.402V33.068h24.53zm-2.13-20.272H8.533v18.136h20.27zm28.796 20.272h-24.53V33.068h24.53zm-2.13-20.272h-20.27v18.136h20.27zm2.13-4.266h-24.53v-22.4h24.53zm-2.13-20.265h-20.27v18.136h20.27zM30.933 30.931H6.402v-22.4h24.53zm-2.13-20.265H8.533v18.136h20.27zm-18.135 7.47a1.07 1.07 0 0 1-.755-1.824l4.266-4.265a1.07 1.07 0 0 1 1.51 0c.416.417.416 1.089 0 1.505l-4.266 4.27a1.07 1.07 0 0 1-.755.314zm0 5.333a1.07 1.07 0 0 1-.755-1.824l2.135-2.135a1.062 1.062 0 0 1 1.505 0 1.068 1.068 0 0 1 0 1.51l-2.13 2.136a1.07 1.07 0 0 1-.755.313zm3.51-6.095a1.115 1.115 0 0 1 1.517 0c.186.205.306.481.306.762 0 .276-.12.552-.306.754a1.133 1.133 0 0 1-.762.308c-.276 0-.552-.115-.754-.308a1.113 1.113 0 0 1-.314-.754c0-.281.12-.557.314-.762zm2.135-.62a1.068 1.068 0 0 1 0-1.509l3.199-3.198a1.07 1.07 0 0 1 1.51 0c.416.417.416 1.089 0 1.505l-3.198 3.202c-.208.21-.484.314-.755.314-.276 0-.546-.104-.756-.314zm21.021 1.382a1.07 1.07 0 0 1-.755-1.824l4.266-4.265a1.07 1.07 0 0 1 1.51 0c.416.417.416 1.089 0 1.505l-4.266 4.27a1.07 1.07 0 0 1-.755.314zm0 5.333a1.07 1.07 0 0 1-.755-1.824l2.135-2.135a1.062 1.062 0 0 1 1.505 0 1.068 1.068 0 0 1 0 1.51l-2.13 2.136a1.07 1.07 0 0 1-.755.313zm3.51-6.095a1.115 1.115 0 0 1 1.517 0c.186.205.306.481.306.762 0 .276-.12.552-.306.754a1.133 1.133 0 0 1-.762.308c-.276 0-.552-.115-.754-.308a1.113 1.113 0 0 1-.314-.754c0-.281.12-.557.314-.762zm2.135-.62a1.068 1.068 0 0 1 0-1.509l3.199-3.198a1.07 1.07 0 0 1 1.51 0c.416.417.416 1.089 0 1.505l-3.198 3.202c-.208.21-.484.314-.755.314-.276 0-.546-.104-.756-.314zm-5.645 25.912a1.068 1.068 0 0 1-.755-1.823l4.266-4.265a1.068 1.068 0 0 1 1.51 1.51l-4.266 4.266a1.068 1.068 0 0 1-.755.312zm0 5.333a1.068 1.068 0 0 1-.755-1.823l2.135-2.13a1.063 1.063 0 0 1 1.505 0c.418.417.418 1.09 0 1.505l-2.13 2.136a1.068 1.068 0 0 1-.755.312zm3.51-6.087c.397-.396 1.11-.396 1.517 0 .186.196.306.478.306.754 0 .287-.12.552-.306.755a1.135 1.135 0 0 1-.762.313c-.276 0-.552-.12-.754-.313a1.095 1.095 0 0 1-.314-.755c0-.276.12-.558.314-.754zm2.135-.626a1.063 1.063 0 0 1 0-1.505l3.199-3.203a1.068 1.068 0 0 1 1.51 1.51l-3.198 3.198a1.069 1.069 0 0 1-1.51 0zm-32.31 1.38a1.068 1.068 0 0 1-.756-1.823l4.266-4.265a1.068 1.068 0 0 1 1.51 1.51l-4.266 4.266a1.068 1.068 0 0 1-.755.312zm0 5.333a1.068 1.068 0 0 1-.756-1.823l2.135-2.13a1.063 1.063 0 0 1 1.505 0c.418.417.418 1.09 0 1.505l-2.13 2.136a1.068 1.068 0 0 1-.755.312zm3.51-6.087c.406-.396 1.12-.396 1.516 0 .202.196.306.478.306.754s-.12.552-.306.755a1.135 1.135 0 0 1-.762.313c-.276 0-.552-.12-.754-.313a1.095 1.095 0 0 1-.314-.755c0-.276.12-.558.314-.754zm2.134-.626a1.063 1.063 0 0 1 0-1.505l3.199-3.203a1.068 1.068 0 0 1 1.51 1.51l-3.198 3.198a1.069 1.069 0 0 1-1.51 0z"/></g></g></svg>