<svg xmlns="http://www.w3.org/2000/svg" width="72" height="64" viewBox="0 0 72 64"><g><g><path fill="#fff" d="M11.335 34.445a1.404 1.404 0 1 1-2.807 0 1.404 1.404 0 0 1 2.807 0zm60.615 3.508a6.315 6.315 0 0 1-4.15 5.937 6.311 6.311 0 0 1-4.97 10.206h-.365a6.311 6.311 0 0 1-5.247 9.825H39.625a22.217 22.217 0 0 1-14.807-5.615h-7.87v4.21c0 .776-.629 1.405-1.404 1.405H1.514A1.404 1.404 0 0 1 .11 62.517V26.023c0-.776.628-1.403 1.403-1.403h14.031c.775 0 1.404.627 1.404 1.403v1.404h5.116c1.48-1.809 2.91-2.582 4.418-3.396.956-.517 1.946-1.052 3.078-1.926 4.716-3.644 7.225-6.263 8.392-8.757 1.125-2.405 1.108-4.898-.057-8.607a1.405 1.405 0 0 1 .021-.904c1.532-4.175 6.52-5.016 9.443-2.493 5.234 4.46 7.443 12.084 5.065 19.219l-.416 1.25h13.366c3.212 0 6.003 2.262 6.49 5.264.36 2.21-.439 4.49-2.264 5.966a6.304 6.304 0 0 1 2.35 4.91zM14.141 27.427H2.916v33.686h11.225zm55.003 10.527a3.513 3.513 0 0 0-3.508-3.51h-13.47a1.403 1.403 0 1 1 0-2.807h13.47a3.51 3.51 0 0 0 3.46-4.108c-.27-1.66-1.87-2.91-3.722-2.91H47.255a1.404 1.404 0 0 1 0-2.807h1.795l.712-2.136c1.96-5.881.336-12.207-4.136-16.118-1.648-1.424-3.969-.941-4.899.848 2.354 7.95.155 12.497-9.451 19.92-1.313 1.014-2.454 1.63-3.46 2.175-1.55.837-2.67 1.442-3.935 3.162a1.404 1.404 0 0 1-1.13.57h-5.803V55.5h8.413c.355 0 .698.135.958.378a19.422 19.422 0 0 0 13.306 5.236h17.593a3.506 3.506 0 0 0 3.507-3.509 3.512 3.512 0 0 0-3.507-3.509h-5.052a1.404 1.404 0 0 1 0-2.807H62.83c1.94 0 3.508-1.57 3.508-3.509a3.513 3.513 0 0 0-3.508-3.51H52.166a1.403 1.403 0 1 1 0-2.807h13.47a3.506 3.506 0 0 0 3.508-3.508zM11.335 40.06v14.036a1.404 1.404 0 1 1-2.806 0V40.06a1.403 1.403 0 1 1 2.806 0z"/></g></g></svg>