<svg xmlns="http://www.w3.org/2000/svg" width="36" height="40" viewBox="0 0 36 40"><g><g><path fill="#fff" d="M35.338 19.331c0 6.013-4.893 10.903-10.907 10.903-1.854 0-3.66-.47-5.26-1.351v11.11h-2.343v-11.11c-1.6.88-3.406 1.351-5.26 1.351-6.013 0-10.906-4.89-10.906-10.903 0-4.347 2.6-8.273 6.544-9.994a10.862 10.862 0 0 1 3.362-6.408A10.87 10.87 0 0 1 18 .006a10.87 10.87 0 0 1 7.432 2.923 10.862 10.862 0 0 1 3.362 6.408 10.93 10.93 0 0 1 6.544 9.994zm-2.344 0a8.58 8.58 0 0 0-5.681-8.063l-.717-.256-.058-.759a8.526 8.526 0 0 0-2.704-5.61A8.536 8.536 0 0 0 18 2.35a8.536 8.536 0 0 0-5.834 2.294 8.526 8.526 0 0 0-2.704 5.61l-.058.759-.717.256a8.58 8.58 0 0 0-5.681 8.063c0 4.72 3.841 8.56 8.563 8.56 1.912 0 3.76-.638 5.26-1.806v-1.972l-5.257-2.762 1.09-2.074 4.166 2.188V11.66h2.344v4.613l4.165-2.19 1.091 2.074-5.256 2.763v7.165a8.555 8.555 0 0 0 5.26 1.806c4.72 0 8.562-3.84 8.562-8.56z"/></g></g></svg>