<svg xmlns="http://www.w3.org/2000/svg" width="43" height="40" viewBox="0 0 43 40"><g><g><path fill="#fff" d="M42.379 15.117c.137.42.026.885-.31 1.195l-9.418 9.24 2.26 12.938a.896.896 0 0 1 .034.267c0 .635-.524 1.16-1.16 1.16-.18 0-.361-.043-.533-.13l-11.696-6.11-11.662 6.18a1.101 1.101 0 0 1-.541.138c-.241 0-.482-.078-.68-.224a1.145 1.145 0 0 1-.463-1.134L10.4 25.62l-9.478-9.19a1.147 1.147 0 0 1-.3-1.185 1.17 1.17 0 0 1 .936-.791l13.063-1.943L20.42.657a1.157 1.157 0 0 1 2.08-.007l5.878 11.82 13.063 1.856c.438.068.8.37.937.791zm-3.584 1.186l-11.344-1.616a1.18 1.18 0 0 1-.876-.636L21.47 3.787l-5.036 10.29a1.15 1.15 0 0 1-.868.635L4.231 16.397l8.215 7.978c.275.267.395.645.336 1.023l-1.9 11.304 10.124-5.364a1.172 1.172 0 0 1 1.083 0l10.157 5.304-1.968-11.287a1.148 1.148 0 0 1 .327-1.032z"/></g></g></svg>