<svg xmlns="http://www.w3.org/2000/svg" viewBox="0 0 33 28">
  <path fill="#bfb741" d="M3.589 27.998V7.973H.007V0h4.65v3.462h2.45V0h4.65v3.462h2.45V0h4.586v3.462h2.513V0h4.587v3.462h2.513V0h4.586v7.974h-3.518v20.025h-1.068V7.973H4.656v20.025zM17.788.988h-2.513v3.523h-4.587V.988H8.175v3.523H3.59V.988H1.076v5.934h30.848V.988h-2.45v3.523h-4.65V.988h-2.45v3.523h-4.586zm-8.23 10.26v5.378h-3.52V11.25c0-.804.504-1.113 1.006-1.36.126-.062.314-.186.377-.248l.377-.37.377.37c.063.062.251.186.377.248.503.247 1.005.556 1.005 1.36zm-1.069 0c0-.185-.188-.308-.44-.432l-.25-.185-.252.185c-.252.124-.44.247-.44.433v4.326h1.382zm5.362 0v5.378h-3.518V11.25c0-.804.502-1.113 1.005-1.36.126-.062.314-.186.377-.248l.377-.37.377.37c.063.062.251.186.377.248.503.247 1.005.556 1.005 1.36zm-1.068 0c0-.185-.188-.308-.44-.432l-.25-.185-.252.185c-.252.124-.44.247-.44.433v4.326h1.382zm10.135 0v5.378h-3.581V11.25c0-.804.503-1.113 1.005-1.36.189-.062.314-.186.377-.248l.377-.37.377.37c.126.062.251.186.377.248.503.247 1.068.556 1.068 1.36zm-1.068 0c0-.185-.251-.308-.503-.432l-.25-.185-.252.185c-.189.124-.44.247-.44.433v4.326h1.445zm5.362 0v5.378h-3.581V11.25c0-.804.502-1.113 1.005-1.36.189-.062.314-.186.377-.248l.377-.37.377.37c.126.062.251.186.377.248.503.247 1.068.556 1.068 1.36zm-1.068 0c0-.185-.251-.308-.503-.432l-.251-.185-.251.185c-.189.124-.44.247-.44.433v4.326h1.445zm-12.377 16.75v-7.23c0-1.072.757-1.456 1.542-1.814l-.286-.844 1.508-1.051.314.185 1.131.866-.286.844c.786.358 1.543.742 1.543 1.813v7.231h-1.068v-7.23c0-.433-.503-.68-.943-.866l-.188-.124h-1.005l-.189.124c-.503.185-1.005.433-1.005.865v7.231zm2.953-9.455l.032.014.03-.076-.125-.062-.126-.124-.251.186.063.308h.314z"/>
</svg>
