<svg xmlns="http://www.w3.org/2000/svg" viewBox="0 0 11244 2479">
  <g fill="none" fill-rule="evenodd">
    <path fill="#565C66" d="M4566 0v2479H1239C554.672 2478.73 0 1923.89 0 1239.5 0 554.943 554.943 0 1239.5 0H4566zm788.346 1315c85.489 0 160.508 13.955 225.06 41.867 64.554 27.91 115.366 68.905 152.44 122.983 37.075 54.078 56.92 118.622 59.537 193.633 1.727 48.357 2.6 86.881 2.617 115.575v.867c0 28.783-.872 66.725-2.617 113.825-5.234 115.134-46.67 202.791-124.307 262.975-77.638 60.184-181.88 90.275-312.73 90.275-130.85 0-235.093-30.091-312.73-90.275-77.638-60.184-119.074-147.841-124.308-262.975-.854-23.081-1.29-59.987-1.307-110.718v-6.282c.017-51.578.453-89.333 1.307-113.267 2.617-75.011 22.463-139.555 59.537-193.633s87.887-95.072 152.44-122.983c64.552-27.912 139.572-41.867 225.06-41.867zm914.37 13c9.592 0 17.877 3.49 24.854 10.469 6.977 6.979 10.465 15.266 10.465 24.862v274.8h20.93l159.593-281.342c10.465-19.193 27.907-28.789 52.326-28.789h289.099c7.848 0 14.607 2.835 20.276 8.506 5.668 5.67 8.503 12.431 8.503 20.283 0 5.234-1.309 10.032-3.925 14.394l-235.465 395.188 257.704 434.446c2.616 3.49 3.924 8.288 3.924 14.394 0 7.852-2.834 14.613-8.503 20.283-5.669 5.67-12.427 8.506-20.276 8.506h-298.256c-14.826 0-26.163-3.053-34.012-9.16-7.848-6.107-14.389-13.086-19.622-20.937l-160.9-287.886h-31.396v282.652c0 9.596-3.488 17.883-10.465 24.862-6.977 6.98-15.262 10.469-24.855 10.469H6012.32c-9.593 0-17.878-3.271-24.855-9.814S5977 2219.137 5977 2208.669V1363.33c0-9.596 3.488-17.883 10.465-24.862 6.977-6.98 15.262-10.469 24.855-10.469h256.395zm1050.003 0c9.593 0 17.878 3.49 24.855 10.469 6.977 6.979 10.465 15.266 10.465 24.862v274.8h211.922v-274.8c0-9.596 3.488-17.883 10.465-24.862 6.977-6.98 15.262-10.469 24.855-10.469h256.399c9.593 0 17.878 3.49 24.855 10.469 6.977 6.979 10.465 15.266 10.465 24.862v845.338c0 9.596-3.488 17.883-10.465 24.862-6.977 6.98-15.262 10.469-24.855 10.469H7601.28c-9.593 0-17.878-3.49-24.855-10.469-6.977-6.979-10.465-15.266-10.465-24.862v-282.652h-211.922v282.652c0 9.596-3.488 17.883-10.465 24.862-6.977 6.98-15.262 10.469-24.855 10.469H7062.32c-9.593 0-17.878-3.271-24.855-9.814S7027 2219.137 7027 2208.669V1363.33c0-9.596 3.488-17.883 10.465-24.862 6.977-6.98 15.262-10.469 24.855-10.469h256.399zm1348.265 0c16.576 0 29.662 4.362 39.258 13.086 9.597 8.724 16.14 18.756 19.63 30.097l291.82 834.868c.872 2.618 1.308 5.67 1.308 9.16 0 7.852-2.835 14.613-8.506 20.283-5.67 5.67-12.432 8.506-20.283 8.506h-242.093c-26.172 0-43.184-10.905-51.036-32.714l-31.407-86.366h-281.35l-31.407 86.366c-7.852 21.81-24.864 32.714-51.036 32.714H8059.79c-7.851 0-14.612-2.835-20.283-8.506-5.67-5.67-8.506-12.431-8.506-20.283 0-3.49.436-6.542 1.309-9.16l291.82-834.868c3.49-11.341 10.032-21.373 19.629-30.097 9.596-8.724 22.682-13.086 39.258-13.086h283.968zM3339.5 443c-439.895 0-796.5 356.605-796.5 796.5s356.605 796.5 796.5 796.5 796.5-356.605 796.5-796.5S3779.395 443 3339.5 443zm-1157.925 0H848.425c-16.683 0-31.092 6.069-43.225 18.206-11.967 11.97-18.033 26.155-18.197 42.554l-.003.684v366.39c0 16.689 6.067 31.102 18.2 43.239 11.967 11.97 26.147 18.038 42.54 18.202l.685.004h377.65v1042.277c0 16.688 6.067 31.101 18.2 43.238 11.967 11.971 26.147 18.039 42.54 18.203l.685.003h455c16.683 0 31.092-6.069 43.225-18.206 11.967-11.97 18.033-26.155 18.197-42.554l.003-.684V932.279h377.65c16.683 0 31.092-6.069 43.225-18.206 11.967-11.971 18.033-26.156 18.197-42.554l.003-.685v-366.39c0-16.688-6.067-31.101-18.2-43.238S2198.258 443 2181.575 443zm3172.77 1127c-28.848 0-52.014 8.727-69.497 26.182-17.484 17.454-26.663 44.072-27.537 79.854-.857 23.095-1.293 58.345-1.31 105.752v5.821c.017 47.434.454 83.552 1.31 108.355.874 35.782 9.835 62.4 26.881 79.854 17.047 17.455 40.43 26.182 70.152 26.182s53.106-8.727 70.153-26.182c17.046-17.454 26.006-44.072 26.88-79.854 1.731-50.113 2.605-86.966 2.623-110.562v-.711c0-25.31-.874-61.527-2.623-108.655-.874-35.782-10.052-62.4-27.536-79.854-17.483-17.455-40.649-26.182-69.497-26.182zm3170 57L8451 1870h148l-74.655-243zM5717.69 221c9.59 0 17.873 3.49 24.849 10.469 6.975 6.979 10.462 15.266 10.462 24.862v210.68c0 9.597-3.487 17.884-10.462 24.863-6.976 6.98-15.258 10.469-24.849 10.469h-217.097v599.326c0 9.596-3.487 17.883-10.462 24.862-6.975 6.98-15.258 10.469-24.849 10.469H5203.72c-9.59 0-17.874-3.49-24.849-10.469-6.975-6.979-10.462-15.266-10.462-24.862V502.343H4951.31c-9.59 0-17.873-3.49-24.849-10.469-6.975-6.979-10.462-15.266-10.462-24.863v-210.68c0-9.596 3.487-17.883 10.462-24.862 6.976-6.98 15.258-10.469 24.849-10.469h766.378zm901.537 0c9.59 0 17.874 3.49 24.849 10.469 6.975 6.979 10.462 15.266 10.462 24.862V440.84c0 9.596-3.487 17.884-10.462 24.863-6.975 6.979-15.258 10.468-24.849 10.468h-392.348v82.44h363.576c9.59 0 17.874 3.49 24.849 10.469 6.975 6.98 10.462 15.267 10.462 24.863v170.114c0 9.596-3.487 17.884-10.462 24.863-6.975 6.98-15.258 10.469-24.85 10.469h-363.575v82.44h402.81c9.591 0 17.874 3.49 24.85 10.468 6.975 6.98 10.462 15.267 10.462 24.863v184.509c0 9.596-3.488 17.883-10.463 24.862-6.975 6.98-15.258 10.469-24.848 10.469H5948.31c-9.59 0-17.873-3.49-24.848-10.469-6.975-6.979-10.463-15.266-10.463-24.862V256.33c0-9.596 3.488-17.883 10.463-24.862 6.975-6.98 15.258-10.469 24.848-10.469h670.915zm1062.454 0c9.593 0 17.878 3.49 24.855 10.469 6.977 6.979 10.465 15.266 10.465 24.862v845.338c0 9.596-3.488 17.883-10.465 24.862-6.977 6.98-15.262 10.469-24.855 10.469H7425.28c-9.593 0-17.878-3.49-24.855-10.469-6.977-6.979-10.465-15.266-10.465-24.862V508.886h-211.922v592.783c0 9.596-3.488 17.883-10.465 24.862-6.977 6.98-15.262 10.469-24.855 10.469H6886.32c-9.593 0-17.878-3.271-24.855-9.814S6851 1112.137 6851 1101.669V256.33c0-9.596 3.488-17.883 10.465-24.862 6.977-6.98 15.262-10.469 24.855-10.469h795.36zm1128.992 0c9.595 0 17.882 3.49 24.86 10.469 6.979 6.979 10.468 15.266 10.468 24.862v845.338c0 9.596-3.49 17.883-10.468 24.862-6.978 6.98-15.265 10.469-24.86 10.469H8554.22c-9.596 0-17.882-3.49-24.86-10.469-6.98-6.979-10.468-15.266-10.468-24.862V508.886h-172.714v40.565c0 153.54-9.377 270.656-28.131 351.352-18.755 80.695-57.135 140.235-115.143 178.62-58.007 38.385-146.762 57.577-266.267 57.577-9.595 0-18.1-3.49-25.514-10.469-7.415-6.979-11.122-15.266-11.122-24.862V894.914c0-19.192 11.776-30.97 35.328-35.331 40.125-7.852 66.294-42.746 78.506-104.686 12.212-61.94 18.318-144.378 18.318-247.32V256.331c0-9.596 3.49-17.883 10.468-24.862 6.978-6.98 15.265-10.469 24.86-10.469h743.192zm536.916 0c9.589 0 17.87 3.49 24.844 10.469 6.973 6.979 10.46 15.266 10.46 24.862V506.27h84.992c129.014 0 227.952 25.735 296.818 77.205C9833.568 634.945 9868 712.586 9868 816.4s-34.868 183.2-104.605 238.16c-69.738 54.96-168.24 82.44-295.51 82.44h-376.58c-9.59 0-17.87-3.49-24.844-10.469-6.974-6.979-10.461-15.266-10.461-24.862V256.33c0-9.596 3.487-17.883 10.46-24.862 6.974-6.98 15.255-10.469 24.844-10.469h256.284zm900.04 0c9.607 0 17.904 3.49 24.891 10.469 6.987 6.979 10.481 15.266 10.481 24.862v845.338c0 9.596-3.494 17.883-10.48 24.862-6.988 6.98-15.285 10.469-24.892 10.469h-267.256c-9.607 0-17.904-3.49-24.891-10.469-6.987-6.979-10.481-15.266-10.481-24.862V256.33c0-9.596 3.494-17.883 10.48-24.862 6.988-6.98 15.285-10.469 24.892-10.469h267.256zm950.598 0c9.59 0 17.874 3.49 24.849 10.469 6.975 6.979 10.462 15.266 10.462 24.862V440.84c0 9.596-3.487 17.884-10.462 24.863-6.975 6.979-15.258 10.468-24.849 10.468h-392.348v82.44h363.576c9.59 0 17.873 3.49 24.849 10.469 6.975 6.98 10.462 15.267 10.462 24.863v170.114c0 9.596-3.487 17.884-10.462 24.863-6.976 6.98-15.258 10.469-24.85 10.469h-363.575v82.44h402.81c9.592 0 17.874 3.49 24.85 10.468 6.975 6.98 10.462 15.267 10.462 24.863v184.509c0 9.596-3.487 17.883-10.463 24.862-6.975 6.98-15.257 10.469-24.848 10.469h-681.378c-9.59 0-17.873-3.49-24.848-10.469-6.976-6.979-10.463-15.266-10.463-24.862V256.33c0-9.596 3.487-17.883 10.463-24.862 6.975-6.98 15.257-10.469 24.848-10.469h670.915zM9466.91 748H9382v145h84.91c20.03 0 35.052-6.967 45.067-20.9 10.016-13.935 15.023-31.788 15.023-53.56 0-22.642-5.878-40.06-17.635-52.252-11.757-12.192-25.908-18.288-42.455-18.288zM1239.5 0l-.5.004V0h.5z"/>
  </g>
</svg>
