<svg xmlns="http://www.w3.org/2000/svg" width="232" height="103" viewBox="0 0 232 103"><defs><mask id="c47zb" width="2" height="2" x="-1" y="-1"><path fill="#fff" d="M5 3h226v97H5z"/><path d="M13 10h18.023l8.985-7.007L48.993 10H223a8 8 0 0 1 8 8v74a8 8 0 0 1-8 8H13a8 8 0 0 1-8-8V18a8 8 0 0 1 8-8z"/></mask><filter id="c47za" width="256" height="125" x="-11" y="-11" filterUnits="userSpaceOnUse"><feOffset dx="-2" in="SourceGraphic" result="FeOffset1023Out"/><feGaussianBlur in="FeOffset1023Out" result="FeGaussianBlur1024Out" stdDeviation="1.6 1.6"/></filter></defs><g><g><g filter="url(#c47za)"><path fill="none" d="M13 10h18.023l8.985-7.007L48.993 10H223a8 8 0 0 1 8 8v74a8 8 0 0 1-8 8H13a8 8 0 0 1-8-8V18a8 8 0 0 1 8-8z" mask="url(&quot;#c47zb&quot;)"/><path fill-opacity=".1" d="M13 10h18.023l8.985-7.007L48.993 10H223a8 8 0 0 1 8 8v74a8 8 0 0 1-8 8H13a8 8 0 0 1-8-8V18a8 8 0 0 1 8-8z"/></g><path fill="#fff" d="M13 10h18.023l8.985-7.007L48.993 10H223a8 8 0 0 1 8 8v74a8 8 0 0 1-8 8H13a8 8 0 0 1-8-8V18a8 8 0 0 1 8-8z"/></g></g></svg>