<svg xmlns="http://www.w3.org/2000/svg" width="16" height="16" viewBox="0 0 16 16"><g><g><path fill="#bfb741" d="M7.58 13.112l1.29 1.748H.912c-.503 0-.91-.391-.91-.874V.875C.002.392.41 0 .912 0H12.31c.504 0 .912.391.912.874v8.973l-1.824 1.444V1.75H1.825v11.363zm8.322-3.138L11.43 15.82a.462.462 0 0 1-.368.18h-.004a.463.463 0 0 1-.368-.186l-3.02-4.097a.422.422 0 0 1 .038-.549.47.47 0 0 1 .568-.078l2.787 1.603 4.182-3.313a.471.471 0 0 1 .603.02c.167.151.19.398.055.575zm-5.644-6.04c0 .483-.408.874-.911.874h-5.47c-.504 0-.912-.391-.912-.874 0-.482.408-.874.911-.874h5.47c.504 0 .912.392.912.874zm0 2.622c0 .483-.408.874-.911.874h-5.47c-.504 0-.912-.391-.912-.874 0-.482.408-.874.911-.874h5.47c.504 0 .913.392.912.874zm0 2.622c0 .483-.408.874-.911.874h-5.47c-.504 0-.912-.391-.912-.874 0-.482.408-.874.911-.874h5.47c.504 0 .913.392.912.874z"/></g></g></svg>